<?xml version="1.0" encoding="UTF-8" standalone="no"?>
<!-- Created with Inkscape (http://www.inkscape.org/) -->

<svg
   xmlns:dc="http://purl.org/dc/elements/1.1/"
   xmlns:cc="http://creativecommons.org/ns#"
   xmlns:rdf="http://www.w3.org/1999/02/22-rdf-syntax-ns#"
   xmlns:svg="http://www.w3.org/2000/svg"
   xmlns="http://www.w3.org/2000/svg"
   xmlns:sodipodi="http://sodipodi.sourceforge.net/DTD/sodipodi-0.dtd"
   xmlns:inkscape="http://www.inkscape.org/namespaces/inkscape"
   version="1.1"
   id="svg29"
   xml:space="preserve"
   width="1052"
   height="1024"
   viewBox="0 0 1052 1024"
   sodipodi:docname="crypticcoin.svg"
   inkscape:version="0.92.3 (3ce5693, 2018-03-11)"><metadata
     id="metadata35"><rdf:RDF><cc:Work
         rdf:about=""><dc:format>image/svg+xml</dc:format><dc:type
           rdf:resource="http://purl.org/dc/dcmitype/StillImage" /><dc:title></dc:title></cc:Work></rdf:RDF></metadata><defs
     id="defs33"><linearGradient
       x1="0"
       y1="0"
       x2="1"
       y2="0"
       gradientUnits="userSpaceOnUse"
       gradientTransform="matrix(216.97797,239.54369,239.54369,-216.97797,262.92007,294.36951)"
       spreadMethod="pad"
       id="linearGradient55"><stop
         style="stop-opacity:1;stop-color:#ffab15"
         offset="0"
         id="stop51" /><stop
         style="stop-opacity:1;stop-color:#ffdf15"
         offset="1"
         id="stop53" /></linearGradient><linearGradient
       x1="0"
       y1="0"
       x2="1"
       y2="0"
       gradientUnits="userSpaceOnUse"
       gradientTransform="matrix(216.97797,239.54369,239.54369,-216.97797,246.40747,309.3266)"
       spreadMethod="pad"
       id="linearGradient75"><stop
         style="stop-opacity:1;stop-color:#ffab15"
         offset="0"
         id="stop71" /><stop
         style="stop-opacity:1;stop-color:#ffdf15"
         offset="1"
         id="stop73" /></linearGradient><linearGradient
       x1="0"
       y1="0"
       x2="1"
       y2="0"
       gradientUnits="userSpaceOnUse"
       gradientTransform="matrix(216.97797,239.54369,239.54369,-216.97797,353.651,212.1857)"
       spreadMethod="pad"
       id="linearGradient95"><stop
         style="stop-opacity:1;stop-color:#ffab15"
         offset="0"
         id="stop91" /><stop
         style="stop-opacity:1;stop-color:#ffdf15"
         offset="1"
         id="stop93" /></linearGradient><linearGradient
       x1="0"
       y1="0"
       x2="1"
       y2="0"
       gradientUnits="userSpaceOnUse"
       gradientTransform="matrix(216.97797,239.54369,239.54369,-216.97797,305.7048,255.61523)"
       spreadMethod="pad"
       id="linearGradient115"><stop
         style="stop-opacity:1;stop-color:#ffab15"
         offset="0"
         id="stop111" /><stop
         style="stop-opacity:1;stop-color:#ffdf15"
         offset="1"
         id="stop113" /></linearGradient><linearGradient
       x1="0"
       y1="0"
       x2="1"
       y2="0"
       gradientUnits="userSpaceOnUse"
       gradientTransform="matrix(216.97797,239.54369,239.54369,-216.97797,261.34729,295.79416)"
       spreadMethod="pad"
       id="linearGradient135"><stop
         style="stop-opacity:1;stop-color:#ffab15"
         offset="0"
         id="stop131" /><stop
         style="stop-opacity:1;stop-color:#ffdf15"
         offset="1"
         id="stop133" /></linearGradient><linearGradient
       x1="0"
       y1="0"
       x2="1"
       y2="0"
       gradientUnits="userSpaceOnUse"
       gradientTransform="matrix(216.97797,239.54369,239.54369,-216.97797,310.06165,251.66884)"
       spreadMethod="pad"
       id="linearGradient155"><stop
         style="stop-opacity:1;stop-color:#ffab15"
         offset="0"
         id="stop151" /><stop
         style="stop-opacity:1;stop-color:#ffdf15"
         offset="1"
         id="stop153" /></linearGradient><linearGradient
       x1="0"
       y1="0"
       x2="1"
       y2="0"
       gradientUnits="userSpaceOnUse"
       gradientTransform="matrix(216.97797,239.54369,239.54369,-216.97797,360.40894,206.06441)"
       spreadMethod="pad"
       id="linearGradient175"><stop
         style="stop-opacity:1;stop-color:#ffab15"
         offset="0"
         id="stop171" /><stop
         style="stop-opacity:1;stop-color:#ffdf15"
         offset="1"
         id="stop173" /></linearGradient><linearGradient
       x1="0"
       y1="0"
       x2="1"
       y2="0"
       gradientUnits="userSpaceOnUse"
       gradientTransform="matrix(216.97797,239.54369,239.54369,-216.97797,382.33951,186.19974)"
       spreadMethod="pad"
       id="linearGradient195"><stop
         style="stop-opacity:1;stop-color:#ffab15"
         offset="0"
         id="stop191" /><stop
         style="stop-opacity:1;stop-color:#ffdf15"
         offset="1"
         id="stop193" /></linearGradient><linearGradient
       x1="0"
       y1="0"
       x2="1"
       y2="0"
       gradientUnits="userSpaceOnUse"
       gradientTransform="matrix(216.97797,239.54369,239.54369,-216.97797,310.31543,251.43896)"
       spreadMethod="pad"
       id="linearGradient215"><stop
         style="stop-opacity:1;stop-color:#ffab15"
         offset="0"
         id="stop211" /><stop
         style="stop-opacity:1;stop-color:#ffdf15"
         offset="1"
         id="stop213" /></linearGradient><linearGradient
       x1="0"
       y1="0"
       x2="1"
       y2="0"
       gradientUnits="userSpaceOnUse"
       gradientTransform="matrix(216.97797,239.54369,239.54369,-216.97797,332.246,231.57429)"
       spreadMethod="pad"
       id="linearGradient235"><stop
         style="stop-opacity:1;stop-color:#ffab15"
         offset="0"
         id="stop231" /><stop
         style="stop-opacity:1;stop-color:#ffdf15"
         offset="1"
         id="stop233" /></linearGradient><linearGradient
       x1="0"
       y1="0"
       x2="1"
       y2="0"
       gradientUnits="userSpaceOnUse"
       gradientTransform="matrix(216.97797,239.54369,239.54369,-216.97797,307.77274,253.74211)"
       spreadMethod="pad"
       id="linearGradient255"><stop
         style="stop-opacity:1;stop-color:#ffab15"
         offset="0"
         id="stop251" /><stop
         style="stop-opacity:1;stop-color:#ffdf15"
         offset="1"
         id="stop253" /></linearGradient><linearGradient
       x1="0"
       y1="0"
       x2="1"
       y2="0"
       gradientUnits="userSpaceOnUse"
       gradientTransform="matrix(216.97797,239.54369,239.54369,-216.97797,198.94891,352.31442)"
       spreadMethod="pad"
       id="linearGradient275"><stop
         style="stop-opacity:1;stop-color:#ffab15"
         offset="0"
         id="stop271" /><stop
         style="stop-opacity:1;stop-color:#ffdf15"
         offset="1"
         id="stop273" /></linearGradient><linearGradient
       x1="0"
       y1="0"
       x2="1"
       y2="0"
       gradientUnits="userSpaceOnUse"
       gradientTransform="matrix(216.97797,239.54369,239.54369,-216.97797,240.54651,314.63544)"
       spreadMethod="pad"
       id="linearGradient295"><stop
         style="stop-opacity:1;stop-color:#ffab15"
         offset="0"
         id="stop291" /><stop
         style="stop-opacity:1;stop-color:#ffdf15"
         offset="1"
         id="stop293" /></linearGradient><linearGradient
       x1="0"
       y1="0"
       x2="1"
       y2="0"
       gradientUnits="userSpaceOnUse"
       gradientTransform="matrix(216.97797,239.54369,239.54369,-216.97797,278.68668,280.0882)"
       spreadMethod="pad"
       id="linearGradient315"><stop
         style="stop-opacity:1;stop-color:#ffab15"
         offset="0"
         id="stop311" /><stop
         style="stop-opacity:1;stop-color:#ffdf15"
         offset="1"
         id="stop313" /></linearGradient></defs><sodipodi:namedview
     pagecolor="#ffffff"
     bordercolor="#666666"
     borderopacity="1"
     objecttolerance="10"
     gridtolerance="10"
     guidetolerance="10"
     inkscape:pageopacity="0"
     inkscape:pageshadow="2"
     inkscape:window-width="1853"
     inkscape:window-height="1025"
     id="namedview31"
     showgrid="false"
     inkscape:zoom="0.81933594"
     inkscape:cx="526"
     inkscape:cy="512"
     inkscape:window-x="67"
     inkscape:window-y="27"
     inkscape:window-maximized="1"
     inkscape:current-layer="g37" /><g
     id="g37"
     inkscape:groupmode="layer"
     inkscape:label="crypticcoin-ai"
     transform="matrix(1.3333333,0,0,-1.3333333,0,1024)"><g
       id="g39"><g
         id="g41"><g
           id="g47"><g
             id="g49"><path
               d="m 390.913,516.862 c -19.657,-0.918 -38.905,-6.538 -56.212,-15.851 v 0 c 2.11,-1.235 3.576,-3.298 4.116,-5.655 v 0 c 16.183,8.555 34.114,13.715 52.421,14.57 v 0 c 44.822,2.103 89.358,-21.033 113.351,-58.922 v 0 c 1.405,-2.219 2.723,-4.5 3.99,-6.81 v 0 c 1.346,1.129 3.138,1.843 5.392,1.843 v 0 c 0.563,0 1.092,-0.055 1.598,-0.138 v 0 c -1.594,3.006 -3.3,5.954 -5.115,8.82 v 0 C 486.213,493.005 442.136,516.999 396.852,517 v 0 c -1.979,0 -3.957,-0.046 -5.939,-0.138"
               style="fill:url(#linearGradient55);stroke:none"
               id="path57"
               inkscape:connector-curvature="0" /></g></g></g></g><g
       id="g59"><g
         id="g61"><g
           id="g67"><g
             id="g69"><path
               d="M 279.252,445.863 C 255.903,401.951 259.913,345.29 289.228,304.869 v 0 c 7.24,-9.982 15.853,-18.789 25.458,-26.278 v 0 c 0.525,2.281 2.091,4.322 4.072,5.616 v 0 c -9.016,7.061 -17.101,15.352 -23.909,24.737 v 0 c -27.795,38.323 -31.599,92.037 -9.467,133.659 v 0 c 9.072,17.061 22.173,31.724 37.708,42.98 v 0 c -2.338,0.807 -4.187,2.537 -5.163,4.791 v 0 c -15.903,-11.761 -29.322,-26.923 -38.675,-44.511"
               style="fill:url(#linearGradient75);stroke:none"
               id="path77"
               inkscape:connector-curvature="0" /></g></g></g></g><g
       id="g79"><g
         id="g81"><g
           id="g87"><g
             id="g89"><path
               d="m 414.239,257.755 c -26.174,-3.446 -52.753,1.714 -75.746,13.738 v 0 c -0.181,-1.112 -0.548,-2.191 -1.063,-3.071 v 0 c -0.556,-0.947 -1.53,-2.02 -2.634,-2.823 v 0 c 19.396,-10.242 41.238,-15.838 63.364,-15.838 v 0 c 5.655,0 11.333,0.365 16.988,1.111 v 0 c 42.752,5.64 80.618,32.422 100.755,70.685 v 0 c -0.132,-0.004 -0.259,-0.018 -0.394,-0.018 v 0 c -2.7,0 -4.739,1.016 -6.135,2.549 v 0 c -19.186,-35.913 -54.873,-61.021 -95.135,-66.333"
               style="fill:url(#linearGradient95);stroke:none"
               id="path97"
               inkscape:connector-curvature="0" /></g></g></g></g><g
       id="g99"><g
         id="g101"><g
           id="g107"><g
             id="g109"><path
               d="m 314.68,329.123 c 18.213,-27.601 49.846,-44.674 82.686,-44.674 v 0 c 0.215,0 0.434,0 0.65,0 v 0 c 29.819,0.207 58.447,14.41 77.008,37.65 v 0 c -2.253,0.084 -4.514,0.992 -6.15,2.495 v 0 c -0.149,0.136 -0.279,0.281 -0.413,0.425 v 0 C 451.176,304.225 425.098,291.58 397.968,291.393 v 0 c -0.203,-0.002 -0.402,-0.002 -0.604,-0.002 v 0 c -30.53,0 -59.948,15.883 -76.889,41.556 v 0 c -7.224,10.948 -11.789,23.456 -13.725,36.394 v 0 c -1.739,-0.577 -3.63,-0.702 -5.266,-0.33 v 0 c -0.664,0.151 -1.261,0.384 -1.814,0.669 v 0 c 1.954,-14.418 6.975,-28.38 15.01,-40.557"
               style="fill:url(#linearGradient115);stroke:none"
               id="path117"
               inkscape:connector-curvature="0" /></g></g></g></g><g
       id="g119"><g
         id="g121"><g
           id="g127"><g
             id="g129"><path
               d="m 387.995,481.861 c -33.768,-3.342 -64.038,-24.063 -78.994,-54.077 v 0 c -5.192,-10.42 -8.389,-21.685 -9.649,-33.14 v 0 c 1.417,0.981 3.125,1.586 4.951,1.668 v 0 c 0.756,0.034 1.491,-0.062 2.197,-0.247 v 0 c 1.325,9.893 4.219,19.597 8.715,28.621 v 0 c 13.69,27.474 42.527,47.204 73.465,50.266 v 0 c 29.642,2.937 59.704,-9.542 79.243,-32.626 v 0 c 1.365,2.058 3.665,3.297 6.103,3.578 v 0 c -18.962,22.968 -47.571,36.414 -76.747,36.415 v 0 c -3.092,0 -6.19,-0.151 -9.284,-0.458"
               style="fill:url(#linearGradient135);stroke:none"
               id="path137"
               inkscape:connector-curvature="0" /></g></g></g></g><g
       id="g139"><g
         id="g141"><g
           id="g147"><g
             id="g149"><path
               d="m 333.193,383.381 c 0,-35.414 28.811,-64.225 64.226,-64.225 v 0 c 27.346,0 51.328,16.986 60.464,42.528 v 0 h 8.151 c 0.535,0 1.061,0.122 1.539,0.359 v 0 l 9.112,4.505 10.95,-4.594 c 0.427,-0.178 0.882,-0.27 1.343,-0.27 v 0 h 9.239 c 0.513,0 1.022,0.114 1.486,0.334 v 0 l 9.332,4.42 7.263,-4.275 c 0.533,-0.314 1.142,-0.479 1.761,-0.479 v 0 h 8.679 c 1.917,0 3.472,1.554 3.472,3.471 v 0 36.452 c 0,1.918 -1.555,3.472 -3.472,3.472 v 0 h -68.855 c -9.136,25.542 -33.118,42.528 -60.464,42.528 v 0 c -35.415,0 -64.226,-28.812 -64.226,-64.226 m 6.944,0 c 0,31.586 25.697,57.282 57.282,57.282 v 0 c 25.157,0 47.122,-16.113 54.656,-40.096 v 0 c 0.454,-1.447 1.796,-2.431 3.312,-2.431 v 0 h 67.879 v -29.51 h -4.261 l -8.033,4.728 c -0.991,0.583 -2.208,0.637 -3.247,0.146 v 0 l -10.288,-4.874 h -7.761 l -11.767,4.939 c -0.925,0.389 -1.976,0.356 -2.882,-0.09 v 0 l -9.804,-4.849 h -9.836 c -1.516,0 -2.858,-0.983 -3.312,-2.429 v 0 C 444.541,342.213 422.576,326.1 397.419,326.1 v 0 c -31.585,0 -57.282,25.696 -57.282,57.281"
               style="fill:url(#linearGradient155);stroke:none"
               id="path157"
               inkscape:connector-curvature="0" /></g></g></g></g><g
       id="g159"><g
         id="g161"><g
           id="g167"><g
             id="g169"><path
               d="m 461.644,334.117 c 0,-8.134 6.62,-14.755 14.755,-14.755 v 0 c 8.135,0 14.754,6.621 14.754,14.755 v 0 c 0,8.135 -6.619,14.755 -14.754,14.755 v 0 c -8.135,0 -14.755,-6.62 -14.755,-14.755 m 6.944,0 c 0,4.308 3.503,7.812 7.811,7.812 v 0 c 4.307,0 7.811,-3.504 7.811,-7.812 v 0 c 0,-4.308 -3.504,-7.811 -7.811,-7.811 v 0 c -4.308,0 -7.811,3.503 -7.811,7.811"
               style="fill:url(#linearGradient175);stroke:none"
               id="path177"
               inkscape:connector-curvature="0" /></g></g></g></g><g
       id="g179"><g
         id="g181"><g
           id="g187"><g
             id="g189"><path
               d="m 501.568,334.117 c 0,-8.134 6.62,-14.755 14.755,-14.755 v 0 c 8.135,0 14.754,6.621 14.754,14.755 v 0 c 0,8.135 -6.619,14.755 -14.754,14.755 v 0 c -8.135,0 -14.755,-6.62 -14.755,-14.755 m 6.944,0 c 0,4.308 3.503,7.812 7.811,7.812 v 0 c 4.307,0 7.811,-3.504 7.811,-7.812 v 0 c 0,-4.308 -3.504,-7.811 -7.811,-7.811 v 0 c -4.308,0 -7.811,3.503 -7.811,7.811"
               style="fill:url(#linearGradient195);stroke:none"
               id="path197"
               inkscape:connector-curvature="0" /></g></g></g></g><g
       id="g199"><g
         id="g201"><g
           id="g207"><g
             id="g209"><path
               d="m 461.644,434.794 c 0,-8.135 6.62,-14.753 14.755,-14.753 v 0 c 8.135,0 14.754,6.618 14.754,14.753 v 0 c 0,8.136 -6.619,14.755 -14.754,14.755 v 0 c -8.135,0 -14.755,-6.619 -14.755,-14.755 m 6.944,0 c 0,4.309 3.503,7.813 7.811,7.813 v 0 c 4.307,0 7.811,-3.504 7.811,-7.813 v 0 c 0,-4.306 -3.504,-7.81 -7.811,-7.81 v 0 c -4.308,0 -7.811,3.504 -7.811,7.81"
               style="fill:url(#linearGradient215);stroke:none"
               id="path217"
               inkscape:connector-curvature="0" /></g></g></g></g><g
       id="g219"><g
         id="g221"><g
           id="g227"><g
             id="g229"><path
               d="m 501.568,434.794 c 0,-8.135 6.62,-14.753 14.755,-14.753 v 0 c 8.135,0 14.754,6.618 14.754,14.753 v 0 c 0,8.136 -6.619,14.755 -14.754,14.755 v 0 c -8.135,0 -14.755,-6.619 -14.755,-14.755 m 6.944,0 c 0,4.309 3.503,7.813 7.811,7.813 v 0 c 4.307,0 7.811,-3.504 7.811,-7.813 v 0 c 0,-4.306 -3.504,-7.81 -7.811,-7.81 v 0 c -4.308,0 -7.811,3.504 -7.811,7.81"
               style="fill:url(#linearGradient235);stroke:none"
               id="path237"
               inkscape:connector-curvature="0" /></g></g></g></g><g
       id="g239"><g
         id="g241"><g
           id="g247"><g
             id="g249"><path
               d="m 312.363,275.099 c 0,-8.135 6.619,-14.754 14.755,-14.754 v 0 c 8.135,0 14.754,6.619 14.754,14.754 v 0 c 0,8.135 -6.619,14.754 -14.754,14.754 v 0 c -8.136,0 -14.755,-6.619 -14.755,-14.754 m 6.943,0 c 0,4.307 3.504,7.811 7.812,7.811 v 0 c 4.307,0 7.812,-3.504 7.812,-7.811 v 0 c 0,-4.307 -3.505,-7.811 -7.812,-7.811 v 0 c -4.308,0 -7.812,3.504 -7.812,7.811"
               style="fill:url(#linearGradient255);stroke:none"
               id="path257"
               inkscape:connector-curvature="0" /></g></g></g></g><g
       id="g259"><g
         id="g261"><g
           id="g267"><g
             id="g269"><path
               d="m 312.363,493.813 c 0,-8.136 6.619,-14.755 14.755,-14.755 v 0 c 8.135,0 14.754,6.619 14.754,14.755 v 0 c 0,8.136 -6.619,14.755 -14.754,14.755 v 0 c -8.136,0 -14.755,-6.619 -14.755,-14.755 m 6.943,0 c 0,4.307 3.504,7.811 7.812,7.811 v 0 c 4.307,0 7.812,-3.504 7.812,-7.811 v 0 c 0,-4.308 -3.505,-7.811 -7.812,-7.811 v 0 c -4.308,0 -7.812,3.503 -7.812,7.811"
               style="fill:url(#linearGradient275);stroke:none"
               id="path277"
               inkscape:connector-curvature="0" /></g></g></g></g><g
       id="g279"><g
         id="g281"><g
           id="g287"><g
             id="g289"><path
               d="m 288.062,383.381 c 0,-8.136 6.62,-14.755 14.755,-14.755 v 0 c 8.134,0 14.753,6.619 14.753,14.755 v 0 c 0,8.136 -6.619,14.755 -14.753,14.755 v 0 c -8.135,0 -14.755,-6.619 -14.755,-14.755 m 6.944,0 c 0,4.308 3.503,7.811 7.811,7.811 v 0 c 4.306,0 7.811,-3.503 7.811,-7.811 v 0 c 0,-4.306 -3.505,-7.811 -7.811,-7.811 v 0 c -4.308,0 -7.811,3.505 -7.811,7.811"
               style="fill:url(#linearGradient295);stroke:none"
               id="path297"
               inkscape:connector-curvature="0" /></g></g></g></g><g
       id="g299"><g
         id="g301"><g
           id="g307"><g
             id="g309"><path
               d="m 357.494,383.381 c 0,-8.136 6.62,-14.755 14.756,-14.755 v 0 c 8.134,0 14.754,6.619 14.754,14.755 v 0 c 0,8.136 -6.62,14.755 -14.754,14.755 v 0 c -8.136,0 -14.756,-6.619 -14.756,-14.755 m 6.944,0 c 0,4.308 3.504,7.811 7.812,7.811 v 0 c 4.306,0 7.81,-3.503 7.81,-7.811 v 0 c 0,-4.306 -3.504,-7.811 -7.81,-7.811 v 0 c -4.308,0 -7.812,3.505 -7.812,7.811"
               style="fill:url(#linearGradient315);stroke:none"
               id="path317"
               inkscape:connector-curvature="0" /></g></g></g></g></g></svg>